<?xml version="1.0" encoding="UTF-8"?>
<svg viewBox="0 0 90 90" xmlns="http://www.w3.org/2000/svg">
 <defs>
  <filter id="a">
   <feGaussianBlur stdDeviation="1.71395"/>
  </filter>
  <linearGradient id="b" x1="30.859" x2="24.668" y1="1009.7" y2="1021.8" gradientUnits="userSpaceOnUse">
   <stop stop-color="#333" offset="0"/>
   <stop stop-color="#333" stop-opacity="0" offset="1"/>
  </linearGradient>
 </defs>
 <g transform="translate(0 -962.36)">
  <path d="m42.173 980.77c-14.364 0-25.997 11.633-25.997 25.997s11.633 26.025 25.997 26.025 26.025-11.66 26.025-26.025-11.66-25.997-26.025-25.997zm-0.4144 4.3374c11.97 0 21.659 9.717 21.659 21.687s-9.6894 21.66-21.659 21.66-21.687-9.6895-21.687-21.66 9.717-21.687 21.687-21.687z" fill-rule="evenodd" opacity=".72105" stroke="#100e0e" stroke-linecap="round" stroke-linejoin="round" stroke-miterlimit="0" stroke-width="1.0267"/>
  <path d="m23.143 1003.3c-1.7118-2.3179 0.99469-5.8314 2.5421-8.262 1.074-1.6868 2.4659-4.2852 4.4487-4.0249 2.8353 0.37216 4.6605 7.2026 4.6605 7.2026l-2.754 5.0844s-7.1354 2.3856-8.8974 0z" fill="#4d4d4d" stroke="#000" stroke-width=".78226"/>
  <path d="m35.442 988.36c1.1332-2.6491 5.5332-2.092 8.4126-1.9869 1.9984 0.0729 4.944-0.0409 5.7226 1.8011 1.1134 2.6339-3.8551 7.664-3.8551 7.664l-5.7788 0.19663s-5.6677-4.948-4.5013-7.6748z" fill="none" stroke="#000" stroke-width=".78226"/>
  <path d="m35.442 988.36c1.1332-2.6491 5.5332-2.092 8.4126-1.9869 1.9984 0.0729 4.944-0.0409 5.7226 1.8011 1.1134 2.6339-3.8551 7.664-3.8551 7.664l-5.7788 0.19663s-5.6677-4.948-4.5013-7.6748z" fill="none" stroke="#000" stroke-width=".78226"/>
  <path d="m61.627 1008.5c1.7841 2.2626-0.81028 5.8596-2.2803 8.3379-1.0202 1.72-2.3295 4.3609-4.3195 4.1634-2.8456-0.2827-4.8854-7.0521-4.8854-7.0521l2.5922-5.1686s7.0566-2.6094 8.893-0.2806z" fill="none" stroke="#000" stroke-width=".78226"/>
  <path d="m54.476 990.91c2.8677-0.28016 4.4949 3.8456 5.7872 6.4209 0.89696 1.7874 2.413 4.3154 1.1723 5.8836-1.7742 2.2428-8.5736 0.3049-8.5736 0.3049l-2.951-4.9725s1.6133-7.3486 4.565-7.637z" fill="none" stroke="#000" stroke-width=".78226"/>
  <path d="m48.918 1024.7c-1.2643 2.5893-5.6309 1.8127-8.5015 1.5638-1.9923-0.1727-4.9398-0.2064-5.6253-2.085-0.98022-2.6865 4.2336-7.4618 4.2336-7.4618l5.7814 0.092s5.4131 5.2252 4.1118 7.8902z" fill="none" stroke="#000" stroke-width=".78226"/>
  <path d="m48.918 1024.7c-1.2643 2.5893-5.6309 1.8127-8.5015 1.5638-1.9923-0.1727-4.9398-0.2064-5.6253-2.085-0.98022-2.6865 4.2336-7.4618 4.2336-7.4618l5.7814 0.092s5.4131 5.2252 4.1118 7.8902z" fill="none" stroke="#000" stroke-width=".78226"/>
  <path d="m29.638 1021.4c-2.8582 0.3649-4.6067-3.7109-5.9748-6.2469-0.94949-1.7599-2.5397-4.2419-1.346-5.8463 1.707-2.2943 8.5608-0.5585 8.5608-0.5585l3.0969 4.8829s-1.395 7.3932-4.3369 7.7688z" fill="none" stroke="#000" stroke-width=".78226"/>
  <path transform="matrix(1.0199 0 0 .90506 96.512 1001.3)" d="m-44.954 4.8312a8.395 9.3428 0 1 1 -16.79 0 8.395 9.3428 0 1 1 16.79 0z" fill-rule="evenodd" opacity=".29474" stroke="#7b6d10" stroke-linecap="round" stroke-linejoin="round" stroke-width=".2"/>
  <path d="m42.17 975.4c-17.329 0-31.364 14.034-31.364 31.364s14.034 31.397 31.364 31.397 31.397-14.068 31.397-31.397-14.068-31.364-31.397-31.364zm-0.49995 5.2329c14.441 0 26.131 11.723 26.131 26.164s-11.69 26.131-26.131 26.131-26.164-11.69-26.164-26.131 11.723-26.164 26.164-26.164z" fill="#151515" fill-rule="evenodd" stroke="#100e0e" stroke-dasharray="0.61944349, 0.61944349" stroke-linecap="round" stroke-linejoin="round" stroke-miterlimit="0" stroke-width="1.2389"/>
  <path d="m35.442 988.36c1.1332-2.6491 5.5332-2.092 8.4126-1.9869 1.9984 0.0729 4.944-0.0409 5.7226 1.8011 1.1134 2.6339-3.8551 7.664-3.8551 7.664l-5.7788 0.19663s-5.6677-4.948-4.5013-7.6748z" fill="none" stroke="#000" stroke-width=".78226"/>
  <path d="m35.442 988.36c1.1332-2.6491 5.5332-2.092 8.4126-1.9869 1.9984 0.0729 4.944-0.0409 5.7226 1.8011 1.1134 2.6339-3.8551 7.664-3.8551 7.664l-5.7788 0.19663s-5.6677-4.948-4.5013-7.6748z" fill="#4d4d4d" stroke="#000" stroke-width=".78226"/>
  <path d="m61.627 1008.5c1.7841 2.2626-0.81028 5.8596-2.2803 8.3379-1.0202 1.72-2.3295 4.3609-4.3195 4.1634-2.8456-0.2827-4.8854-7.0521-4.8854-7.0521l2.5922-5.1686s7.0566-2.6094 8.893-0.2806z" fill="#666" stroke="#000" stroke-width=".78226"/>
  <path d="m54.476 990.91c2.8677-0.28016 4.4949 3.8456 5.7872 6.4209 0.89696 1.7874 2.413 4.3154 1.1723 5.8836-1.7742 2.2428-8.5736 0.3049-8.5736 0.3049l-2.951-4.9725s1.6133-7.3486 4.565-7.637z" fill="#4d4d4d" stroke="#000" stroke-width=".78226"/>
  <path d="m48.918 1024.7c-1.2643 2.5893-5.6309 1.8127-8.5015 1.5638-1.9923-0.1727-4.9398-0.2064-5.6253-2.085-0.98022-2.6865 4.2336-7.4618 4.2336-7.4618l5.7814 0.092s5.4131 5.2252 4.1118 7.8902z" fill="none" stroke="#000" stroke-width=".78226"/>
  <path d="m48.918 1024.7c-1.2643 2.5893-5.6309 1.8127-8.5015 1.5638-1.9923-0.1727-4.9398-0.2064-5.6253-2.085-0.98022-2.6865 4.2336-7.4618 4.2336-7.4618l5.7814 0.092s5.4131 5.2252 4.1118 7.8902z" fill="#666" stroke="#000" stroke-width=".78226"/>
  <path d="m29.638 1021.4c-2.8582 0.3649-4.6067-3.7109-5.9748-6.2469-0.94949-1.7599-2.5397-4.2419-1.346-5.8463 1.707-2.2943 8.5608-0.5585 8.5608-0.5585l3.0969 4.8829s-1.395 7.3932-4.3369 7.7688z" fill="url(#b)" stroke="#534545" stroke-width=".78184"/>
  <path transform="matrix(.65881 0 0 .65881 77.431 371.05)" d="m-54.478 931.71c-18.362 0-33.233 14.871-33.233 33.233s14.871 33.268 33.233 33.268 33.268-14.906 33.268-33.268-14.906-33.233-33.268-33.233zm-0.52975 5.5447c15.302 0 27.688 12.422 27.688 27.724s-12.386 27.688-27.688 27.688-27.724-12.386-27.724-27.688 12.422-27.724 27.724-27.724z" fill-rule="evenodd" filter="url(#a)" opacity=".4554" stroke="#100e0e" stroke-linecap="round" stroke-linejoin="round" stroke-miterlimit="0" stroke-width="1.3125"/>
  <path transform="matrix(.65881 0 0 .65881 77.431 371.05)" d="m-78.805 960.56c-2.1883-2.9629 1.2716-7.4543 3.2497-10.561 1.3729-2.1564 3.1523-5.4781 5.6869-5.1453 3.6245 0.4758 5.9578 9.2074 5.9578 9.2074l-3.5205 6.4994s-9.1215 3.0497-11.374 0z" fill="none" filter="url(#a)" opacity=".63158" stroke="#000"/>
  <path transform="matrix(.65881 0 0 .65881 77.431 371.05)" d="m-63.083 941.41c1.4486-3.3865 7.0733-2.6744 10.754-2.54 2.5547 0.0932 6.3201-0.0523 7.3154 2.3024 1.4233 3.3672-4.9281 9.7972-4.9281 9.7972l-7.3873 0.25139s-7.2453-6.3252-5.7542-9.811z" fill="none" filter="url(#a)" opacity=".63158" stroke="#000"/>
  <path transform="matrix(.65881 0 0 .65881 77.431 371.05)" d="m-63.083 941.41c1.4486-3.3865 7.0733-2.6744 10.754-2.54 2.5547 0.0932 6.3201-0.0523 7.3154 2.3024 1.4233 3.3672-4.9281 9.7972-4.9281 9.7972l-7.3873 0.25139s-7.2453-6.3252-5.7542-9.811z" fill="none" filter="url(#a)" opacity=".63158" stroke="#000"/>
  <path transform="matrix(.65881 0 0 .65881 77.431 371.05)" d="m-29.61 967.18c2.2807 2.8924-1.0358 7.4907-2.915 10.659-1.3041 2.1987-2.978 5.5748-5.5218 5.3222-3.6377-0.36125-6.2452-9.015-6.2452-9.015l3.3137-6.6072s9.0208-3.3359 11.368-0.35874z" fill="none" filter="url(#a)" opacity=".63158" stroke="#000"/>
  <path transform="matrix(.65881 0 0 .65881 77.431 371.05)" d="m-38.75 944.68c3.6659-0.35814 5.746 4.9161 7.398 8.2082 1.1466 2.2848 3.0847 5.5164 1.4986 7.5213-2.2681 2.867-10.96 0.38968-10.96 0.38968l-3.7724-6.3564s2.0623-9.3941 5.8357-9.7627z" fill="none" filter="url(#a)" opacity=".63158" stroke="#000"/>
  <path transform="matrix(.65881 0 0 .65881 77.431 371.05)" d="m-45.855 987.91c-1.6162 3.3098-7.1982 2.3173-10.868 1.999-2.5468-0.22086-6.3148-0.26388-7.1911-2.6654-1.2531-3.4341 5.412-9.5385 5.412-9.5385l7.3906 0.11843s6.9198 6.6796 5.2563 10.086z" fill="none" filter="url(#a)" opacity=".63158" stroke="#000"/>
  <path transform="matrix(.65881 0 0 .65881 77.431 371.05)" d="m-45.855 987.91c-1.6162 3.3098-7.1982 2.3173-10.868 1.999-2.5468-0.22086-6.3148-0.26388-7.1911-2.6654-1.2531-3.4341 5.412-9.5385 5.412-9.5385l7.3906 0.11843s6.9198 6.6796 5.2563 10.086z" fill="none" filter="url(#a)" opacity=".63158" stroke="#000"/>
  <path transform="matrix(.65881 0 0 .65881 77.431 371.05)" d="m-70.502 983.63c-3.6537 0.46651-5.889-4.7438-7.6378-7.9856-1.2138-2.2498-3.2467-5.4227-1.7207-7.4736 2.1822-2.9328 10.944-0.71399 10.944-0.71399l3.9589 6.242s-1.7833 9.451-5.5441 9.9312z" fill="none" filter="url(#a)" opacity=".63158" stroke="#000"/>
  <path transform="matrix(.69996 0 0 .69996 82.705 338.93)" d="m-58.811 920.88c-18.362 0-33.233 14.871-33.233 33.233s14.871 33.268 33.233 33.268 33.268-14.906 33.268-33.268-14.906-33.233-33.268-33.233zm-0.52975 5.5447c15.302 0 27.688 12.422 27.688 27.724s-12.386 27.688-27.688 27.688-27.724-12.386-27.724-27.688 12.422-27.724 27.724-27.724z" fill-rule="evenodd" filter="url(#a)" opacity=".4554" stroke="#100e0e" stroke-linecap="round" stroke-linejoin="round" stroke-miterlimit="0" stroke-width="1.3125"/>
  <path transform="matrix(.65881 0 0 .65881 77.431 371.05)" d="m-78.805 960.56c-2.1883-2.9629 1.2716-7.4543 3.2497-10.561 1.3729-2.1564 3.1523-5.4781 5.6869-5.1453 3.6245 0.4758 5.9578 9.2074 5.9578 9.2074l-3.5205 6.4994s-9.1215 3.0497-11.374 0z" fill="none" filter="url(#a)" opacity=".63158" stroke="#000"/>
  <path transform="matrix(.65881 0 0 .65881 77.431 371.05)" d="m-63.083 941.41c1.4486-3.3865 7.0733-2.6744 10.754-2.54 2.5547 0.0932 6.3201-0.0523 7.3154 2.3024 1.4233 3.3672-4.9281 9.7972-4.9281 9.7972l-7.3873 0.25139s-7.2453-6.3252-5.7542-9.811z" fill="none" filter="url(#a)" opacity=".63158" stroke="#000"/>
  <path transform="matrix(.65881 0 0 .65881 77.431 371.05)" d="m-63.083 941.41c1.4486-3.3865 7.0733-2.6744 10.754-2.54 2.5547 0.0932 6.3201-0.0523 7.3154 2.3024 1.4233 3.3672-4.9281 9.7972-4.9281 9.7972l-7.3873 0.25139s-7.2453-6.3252-5.7542-9.811z" fill="none" filter="url(#a)" opacity=".63158" stroke="#000"/>
  <path transform="matrix(.65881 0 0 .65881 77.431 371.05)" d="m-29.61 967.18c2.2807 2.8924-1.0358 7.4907-2.915 10.659-1.3041 2.1987-2.978 5.5748-5.5218 5.3222-3.6377-0.36125-6.2452-9.015-6.2452-9.015l3.3137-6.6072s9.0208-3.3359 11.368-0.35874z" fill="none" filter="url(#a)" opacity=".63158" stroke="#000"/>
  <path transform="matrix(.65881 0 0 .65881 77.431 371.05)" d="m-45.855 987.91c-1.6162 3.3098-7.1982 2.3173-10.868 1.999-2.5468-0.22086-6.3148-0.26388-7.1911-2.6654-1.2531-3.4341 5.412-9.5385 5.412-9.5385l7.3906 0.11843s6.9198 6.6796 5.2563 10.086z" fill="none" filter="url(#a)" opacity=".63158" stroke="#000"/>
  <path transform="matrix(.65881 0 0 .65881 77.431 371.05)" d="m-45.855 987.91c-1.6162 3.3098-7.1982 2.3173-10.868 1.999-2.5468-0.22086-6.3148-0.26388-7.1911-2.6654-1.2531-3.4341 5.412-9.5385 5.412-9.5385l7.3906 0.11843s6.9198 6.6796 5.2563 10.086z" fill="none" filter="url(#a)" opacity=".63158" stroke="#000"/>
  <path transform="matrix(.65881 0 0 .65881 77.431 371.05)" d="m-70.502 983.63c-3.6537 0.46651-5.889-4.7438-7.6378-7.9856-1.2138-2.2498-3.2467-5.4227-1.7207-7.4736 2.1822-2.9328 10.944-0.71399 10.944-0.71399l3.9589 6.242s-1.7833 9.451-5.5441 9.9312z" fill="none" filter="url(#a)" opacity=".63158" stroke="#000"/>
  <path transform="matrix(.78226 0 0 .78226 87.755 1012.4)" d="m-53.891-8.7091a4.4683 4.4683 0 1 1 -8.9366 0 4.4683 4.4683 0 1 1 8.9366 0z" fill="#fff" fill-rule="evenodd" opacity=".63158" stroke="#7b6d10" stroke-linecap="round" stroke-linejoin="round" stroke-width=".2"/>
  <path transform="matrix(.43456 0 0 .43456 67.464 1003)" d="m-53.891-8.7091c0 2.4678-2.0005 4.4683-4.4683 4.4683s-4.4683-2.0005-4.4683-4.4683 2.0005-4.4683 4.4683-4.4683 4.4683 2.0005 4.4683 4.4683z" fill="#fff" fill-rule="evenodd" opacity=".63158" stroke="#7b6d10" stroke-linecap="round" stroke-linejoin="round" stroke-width=".2"/>
  <path transform="matrix(.25422 0 0 .25422 56.939 1001.4)" d="m-53.891-8.7091c0 2.4678-2.0005 4.4683-4.4683 4.4683s-4.4683-2.0005-4.4683-4.4683 2.0005-4.4683 4.4683-4.4683 4.4683 2.0005 4.4683 4.4683z" fill-rule="evenodd" opacity=".63158" stroke="#7b6d10" stroke-linecap="round" stroke-linejoin="round" stroke-width=".2"/>
  <path transform="matrix(.43456 0 0 .43456 74.031 1009.1)" d="m-53.891-8.7091c0 2.4678-2.0005 4.4683-4.4683 4.4683s-4.4683-2.0005-4.4683-4.4683 2.0005-4.4683 4.4683-4.4683 4.4683 2.0005 4.4683 4.4683z" fill="#fff" fill-rule="evenodd" opacity=".63158" stroke="#7b6d10" stroke-linecap="round" stroke-linejoin="round" stroke-width=".2"/>
  <path transform="matrix(.25422 0 0 .25422 63.506 1007.6)" d="m-53.891-8.7091c0 2.4678-2.0005 4.4683-4.4683 4.4683s-4.4683-2.0005-4.4683-4.4683 2.0005-4.4683 4.4683-4.4683 4.4683 2.0005 4.4683 4.4683z" fill-rule="evenodd" opacity=".63158" stroke="#7b6d10" stroke-linecap="round" stroke-linejoin="round" stroke-width=".2"/>
  <path transform="matrix(.43456 0 0 .43456 67.252 1015.9)" d="m-53.891-8.7091c0 2.4678-2.0005 4.4683-4.4683 4.4683s-4.4683-2.0005-4.4683-4.4683 2.0005-4.4683 4.4683-4.4683 4.4683 2.0005 4.4683 4.4683z" fill="#fff" fill-rule="evenodd" opacity=".63158" stroke="#7b6d10" stroke-linecap="round" stroke-linejoin="round" stroke-width=".2"/>
  <path transform="matrix(.25422 0 0 .25422 56.727 1014.3)" d="m-53.891-8.7091c0 2.4678-2.0005 4.4683-4.4683 4.4683s-4.4683-2.0005-4.4683-4.4683 2.0005-4.4683 4.4683-4.4683 4.4683 2.0005 4.4683 4.4683z" fill-rule="evenodd" opacity=".63158" stroke="#7b6d10" stroke-linecap="round" stroke-linejoin="round" stroke-width=".2"/>
  <path transform="matrix(.43456 0 0 .43456 61.108 1009.3)" d="m-53.891-8.7091c0 2.4678-2.0005 4.4683-4.4683 4.4683s-4.4683-2.0005-4.4683-4.4683 2.0005-4.4683 4.4683-4.4683 4.4683 2.0005 4.4683 4.4683z" fill="#fff" fill-rule="evenodd" opacity=".63158" stroke="#7b6d10" stroke-linecap="round" stroke-linejoin="round" stroke-width=".2"/>
  <path transform="matrix(.25422 0 0 .25422 50.584 1007.8)" d="m-53.891-8.7091c0 2.4678-2.0005 4.4683-4.4683 4.4683s-4.4683-2.0005-4.4683-4.4683 2.0005-4.4683 4.4683-4.4683 4.4683 2.0005 4.4683 4.4683z" fill-rule="evenodd" opacity=".63158" stroke="#7b6d10" stroke-linecap="round" stroke-linejoin="round" stroke-width=".2"/>
 </g>
</svg>
